<svg xmlns="http://www.w3.org/2000/svg" xmlns:xlink="http://www.w3.org/1999/xlink" width="287" height="104.5" viewBox="0 0 287 104.5">
  <defs>
    <filter id="Combined_Shape" x="0" y="0" width="287" height="83" filterUnits="userSpaceOnUse">
      <feOffset dy="2" input="SourceAlpha"/>
      <feGaussianBlur stdDeviation="4" result="blur"/>
      <feFlood flood-color="#567592" flood-opacity="0.102"/>
      <feComposite operator="in" in2="blur"/>
      <feComposite in="SourceGraphic"/>
    </filter>
    <filter id="Oval_Copy_2" x="207.5" y="50.5" width="54" height="54" filterUnits="userSpaceOnUse">
      <feOffset dy="2" input="SourceAlpha"/>
      <feGaussianBlur stdDeviation="7.5" result="blur-2"/>
      <feFlood flood-color="#173a56" flood-opacity="0.102"/>
      <feComposite operator="in" in2="blur-2"/>
      <feComposite in="SourceGraphic"/>
    </filter>
  </defs>
  <g id="Text" transform="translate(12 10)">
    <g transform="matrix(1, 0, 0, 1, -12, -10)" filter="url(#Combined_Shape)">
      <path id="Combined_Shape-2" data-name="Combined Shape" d="M191.374,53H26.5a26.5,26.5,0,0,1,0-53h210a26.5,26.5,0,0,1,0,53H207.626a8.5,8.5,0,0,1-16.253,0Z" transform="translate(12 10)" fill="#fff"/>
    </g>
    <g transform="matrix(1, 0, 0, 1, -12, -10)" filter="url(#Oval_Copy_2)">
      <circle id="Oval_Copy_2-2" data-name="Oval Copy 2" cx="4.5" cy="4.5" r="4.5" transform="translate(230 71)" fill="#fff"/>
    </g>
    <text id="I_can_design_you_web" data-name="I can design you web" transform="translate(132.5 32)" fill="#2f281e" font-size="16" font-family="Poppins-Medium, Poppins" font-weight="500"><tspan x="-98.76" y="0">I can design you website</tspan></text>
  </g>
</svg>
